<?xml version="1.0" encoding="UTF-8"?> <svg xmlns="http://www.w3.org/2000/svg" viewBox="0 0 33.82 35.7"><defs><style>.cls-1{fill:#caa149;}</style></defs><title>framebyframefilms_2</title><g id="Capa_2" data-name="Capa 2"><g id="Capa_1-2" data-name="Capa 1"><polygon class="cls-1" points="30.19 21.52 28.09 8.75 30.7 5.12 33.82 24.13 30.19 21.52"></polygon><path class="cls-1" d="M15.87,4.07,15.36,1,0,3.46,5.29,35.7,9.7,35,6.52,15.57l11-1.77L17,10.68,6,12.45,4.92,5.86ZM8.32,34.31l-2,.33-.34-2,2-.34Zm-.66-4.07-2,.33-.33-2,2-.34ZM7,26.17,5,26.5l-.33-2,2-.34Zm-.67-4-2,.33-.34-2,2-.33Zm-.66-4.07-2,.34-.33-2,2-.33ZM5,14l-2,.34-.33-2,2-.33ZM4.32,9.92l-2,.34L2,8.22l2-.33ZM3.65,5.85l-2,.34-.34-2,2-.33Z"></path><path class="cls-1" d="M20.2,23.25,9.25,25,8.73,21.9l11-1.77L16.5.72,20.91,0,26.2,32.24,10.84,34.76l-.51-3.13,11-1.79Z"></path><path class="cls-1" d="M26.84,9l-3.08.51,2.1,12.77,3.07-.5ZM24.52,10.3l1.86-.3.13.78-1.86.3Zm.34,2,1.85-.3.13.78L25,13.13Zm.33,2.05,1.85-.3.13.78-1.85.3Zm.33,2,1.86-.3.12.78-1.85.3Zm.34,2.05,1.85-.3.13.78-1.86.3Zm.33,2,1.85-.3.13.78-1.85.3Z"></path></g></g></svg> 